@startuml
class Usuario
class Rol
class Permiso
class BaseDeDatos
class Esquema
class Vista
class Tabla
class Indice
class Campo
class Constraints
class PrimaryKey
class ForeignKey

Usuario --> Rol
BaseDeDatos -right-> Esquema
Rol --> Permiso
Esquema --> Vista
Permiso --> Vista
Vista --> Tabla
Tabla --> Indice
Campo -left-> Indice
Campo -right-> Constraints
Tabla --> Campo
Campo --> PrimaryKey
Constraints -[hidden]down-> ForeignKey
Campo --> ForeignKey
Campo -[hidden]down-> TipoDeDato
Campo --> TipoDeDato

hide empty members
@enduml